<svg width="38" height="30" viewBox="0 0 38 30" fill="none" xmlns="http://www.w3.org/2000/svg">
<g clip-path="url(#clip0_0_5)">
<path d="M0 25.219C0 29.105 2.065 30 4.213 30C8.757 30 12.173 26.002 14.21 22.843C13.962 23.541 13.824 24.24 13.824 24.912C13.824 26.757 14.871 28.071 16.936 28.071C19.773 28.071 22.802 25.554 24.372 22.842C24.262 23.234 24.207 23.597 24.207 23.932C24.207 25.219 24.923 26.03 26.382 26.03C30.982 26.03 35.608 17.782 35.608 10.568C35.608 4.948 32.798 0 25.748 0C13.357 0 0 15.322 0 25.219ZM21.48 9.953C21.48 8.555 22.251 7.577 23.38 7.577C24.482 7.577 25.253 8.555 25.253 9.953C25.253 11.351 24.483 12.358 23.381 12.358C22.251 12.358 21.481 11.351 21.481 9.953H21.48ZM27.374 9.953C27.374 8.555 28.144 7.577 29.274 7.577C30.375 7.577 31.146 8.555 31.146 9.953C31.146 11.351 30.376 12.358 29.274 12.358C28.144 12.358 27.374 11.351 27.374 9.953ZM41.115 26.953H45.245V23.178C45.245 21.193 45.108 20.27 44.309 18.453L44.749 18.229C46.072 21.277 48.027 22.479 50.065 22.479C53.342 22.479 55.958 19.571 55.958 15.069C55.958 10.764 53.562 7.605 50.12 7.605C48.082 7.605 46.072 8.779 44.75 11.827L44.31 11.603C44.86 10.401 45.245 9.199 45.245 8.053H41.115V26.953ZM45.245 15.042C45.245 13.197 46.623 11.156 48.66 11.156C50.313 11.156 51.662 12.526 51.662 15.014C51.662 17.474 50.368 18.928 48.632 18.928C46.705 18.928 45.245 16.943 45.245 15.042ZM57.25 22.032H61.382V17.11C61.382 13.643 62.593 11.183 64.852 11.183C66.283 11.183 66.724 12.161 66.724 14.593V22.031H70.855V13.923C70.855 9.505 69.285 7.603 66.283 7.603C63.227 7.603 62.235 9.701 61.051 12.105L60.611 11.854C61.216 10.344 61.381 9.394 61.381 8.051V3.327H57.251L57.25 22.032ZM76.757 22.479C79.374 22.479 80.943 20.689 82.045 18.565L82.513 18.816C82.073 19.823 81.659 21.026 81.659 22.032H85.708V14.427C85.708 9.897 83.835 7.605 79.456 7.605C75.16 7.605 73.04 9.785 72.626 12.078L76.592 12.778C76.73 11.575 77.694 10.764 79.236 10.764C80.778 10.764 81.659 11.547 81.659 12.498C81.659 13.448 80.751 13.896 78.327 13.924C74.747 13.98 72.103 15.294 72.103 18.09C72.103 20.382 73.893 22.479 76.757 22.479ZM76.207 17.838C76.207 15.573 79.649 17.167 81.577 15.433V15.965C81.577 17.95 79.814 19.375 78.162 19.375C77.226 19.375 76.207 18.985 76.207 17.838ZM87.56 22.032H91.69V17.11C91.69 13.643 92.902 11.183 95.16 11.183C96.592 11.183 97.033 12.161 97.033 14.593V22.031H101.164V13.923C101.164 9.505 99.594 7.603 96.592 7.603C93.536 7.603 92.544 9.701 91.36 12.105L90.92 11.854C91.525 10.344 91.69 9.394 91.69 8.051H87.56V22.032ZM112.328 22.088V18.62C111.446 18.927 108.995 19.458 108.995 17.418V11.462H112.658V8.052H108.995V4.305L104.837 5.563V8.051H102.359V11.462H104.837L104.865 17.753C104.865 22.423 108.968 23.094 112.328 22.088ZM120.988 22.479C125.173 22.479 128.368 19.236 128.368 15.014C128.368 10.82 125.173 7.604 120.988 7.604C116.802 7.604 113.58 10.82 113.58 15.014C113.58 19.236 116.802 22.479 120.988 22.479ZM117.848 15.042C117.848 12.722 119.142 11.1 120.988 11.1C122.833 11.1 124.099 12.721 124.099 15.042C124.099 17.362 122.833 18.984 120.988 18.984C119.142 18.984 117.848 17.362 117.848 15.042ZM129.729 22.032H133.859V17.11C133.859 13.503 134.878 11.183 136.696 11.183C137.88 11.183 138.376 12.133 138.376 14.593V22.031H142.507V17.11C142.507 13.727 143.608 11.183 145.343 11.183C146.5 11.183 147.023 12.273 147.023 14.593V22.031H151.154V13.923C151.154 9.477 149.722 7.603 146.913 7.603C143.994 7.603 142.837 9.617 142.066 12.049L141.598 11.798C142.011 10.344 141.763 9.561 141.267 8.946C140.551 8.051 139.532 7.604 138.238 7.604C135.649 7.604 134.52 9.449 133.529 12.021L133.088 11.741C133.556 10.484 133.859 9.477 133.859 8.051H129.729V22.032Z" fill="black"/>
</g>
<defs>
<clipPath id="clip0_0_5">
<rect width="38" height="30" fill="white"/>
</clipPath>
</defs>
</svg>
