<svg width="337" height="97" viewBox="0 0 337 97" fill="none" xmlns="http://www.w3.org/2000/svg">
<rect width="337" height="97" fill="#FFF500"/>
<path d="M60.752 43.9721C60.752 45.0761 60.728 46.1801 60.68 47.2841C60.68 48.3401 60.68 49.4201 60.68 50.5241C60.68 53.5001 60.752 56.4041 60.896 59.2361C61.088 62.0681 61.472 64.9241 62.048 67.8041C62.192 68.6201 62.264 69.4121 62.264 70.1801C62.264 71.5721 62.024 72.8681 61.544 74.0681C61.064 75.2681 60.368 76.3481 59.456 77.3081C58.592 78.2201 57.536 78.9401 56.288 79.4681C55.04 79.9961 53.648 80.2601 52.112 80.2601C49.76 80.2601 47.912 79.5161 46.568 78.0281C45.224 76.5881 44.216 74.7881 43.544 72.6281C42.872 70.4681 42.44 68.1881 42.248 65.7881C42.104 63.3401 42.032 61.1321 42.032 59.1641C42.032 57.0041 42.056 54.8921 42.104 52.8281C42.2 50.7641 42.248 48.5561 42.248 46.2041C42.152 46.2041 42.08 46.2281 42.032 46.2761C41.984 46.2761 41.912 46.2761 41.816 46.2761C40.808 46.5641 39.824 46.8761 38.864 47.2121C37.904 47.5001 36.944 47.6441 35.984 47.6441C33.92 47.6441 32.216 46.8281 30.872 45.1961C29.576 43.5641 28.928 41.3321 28.928 38.5001C28.928 34.4201 31.064 31.588 35.336 30.0041C43.256 27.0761 50.96 25.6121 58.448 25.6121C60.128 25.6121 61.952 25.7081 63.92 25.9001C65.888 26.0921 67.712 26.5001 69.392 27.124C71.072 27.7 72.464 28.588 73.568 29.788C74.672 30.9401 75.224 32.4761 75.224 34.396C75.224 36.2201 74.672 37.7561 73.568 39.0041C72.512 40.2041 71.216 41.1881 69.68 41.9561C68.192 42.6761 66.608 43.2041 64.928 43.5401C63.296 43.8281 61.904 43.9721 60.752 43.9721ZM73.28 33.3161C73.328 32.7881 73.184 32.2361 72.848 31.6601C72.656 31.3721 72.392 31.1081 72.056 30.8681C71.72 30.6281 71.36 30.6041 70.976 30.7961C70.496 31.0361 70.256 31.4441 70.256 32.0201C70.256 32.5481 70.4 33.0521 70.688 33.5321C71.264 34.3481 71.912 34.588 72.632 34.2521C72.776 34.156 72.92 34.036 73.064 33.8921C73.208 33.7481 73.28 33.5561 73.28 33.3161ZM117.933 31.3001C120.717 32.26 122.349 33.8921 122.829 36.1961C123.453 38.9321 123.933 41.8841 124.269 45.0521C124.653 48.2201 124.629 51.4841 124.197 54.8441C123.669 58.3961 122.637 61.7561 121.101 64.9241C119.565 68.0921 117.597 70.8761 115.197 73.2761C112.845 75.6281 110.085 77.4521 106.917 78.7481C103.749 80.0921 100.293 80.6681 96.5489 80.4761C94.8209 80.4281 93.1169 80.1881 91.4369 79.7561C89.8049 79.3241 88.2689 78.7481 86.8289 78.0281C85.4369 77.3561 84.1649 76.5401 83.0129 75.5801C81.8609 74.5721 80.9009 73.4921 80.1329 72.3401C79.3169 71.1401 78.6449 69.8921 78.1169 68.5961C77.6369 67.2521 77.2529 65.9081 76.9649 64.5641C76.6769 63.2201 76.5089 61.8761 76.4609 60.5321C76.3649 59.1881 76.3409 57.8921 76.3889 56.6441C76.2929 54.8201 76.2929 52.9241 76.3889 50.9561C76.4849 48.9401 76.6289 46.9481 76.8209 44.9801V44.8361C76.8689 44.6441 76.8929 44.3561 76.8929 43.9721C76.9889 43.1561 77.1569 42.2441 77.3969 41.2361C77.6369 40.2281 77.9009 39.1961 78.1889 38.1401C78.5249 36.9881 79.0529 35.932 79.7729 34.9721C80.4929 33.9641 81.3329 33.1001 82.2929 32.38C83.2529 31.6601 84.3089 31.1081 85.4609 30.724C86.6129 30.3401 87.7889 30.1721 88.9889 30.2201C91.3889 30.364 93.2369 31.2281 94.5329 32.8121C95.8289 34.3961 96.3569 36.5081 96.1169 39.1481C95.9729 41.0681 95.8049 42.9641 95.6129 44.8361C95.4209 46.6601 95.3009 48.5081 95.2529 50.3801C95.2529 52.2041 95.3249 54.0761 95.4689 55.9961C95.6609 57.8681 96.0449 59.8121 96.6209 61.8281V61.9721C96.8609 62.5481 97.1489 63.1241 97.4849 63.7001C97.8209 64.2761 98.3729 64.5881 99.1409 64.6361C100.053 64.6841 100.821 64.3961 101.445 63.7721C102.069 63.1481 102.597 62.3561 103.029 61.3961C103.461 60.3881 103.773 59.3321 103.965 58.2281C104.205 57.0761 104.397 56.0201 104.541 55.0601C104.829 53.0921 104.925 51.0521 104.829 48.9401C104.733 46.8281 104.565 44.8121 104.325 42.8921L104.253 41.5961C104.157 40.6361 104.181 39.8201 104.325 39.1481C104.517 37.8041 104.949 36.6041 105.621 35.5481C106.293 34.4921 107.109 33.6041 108.069 32.8841C109.077 32.1161 110.181 31.5641 111.381 31.2281C112.581 30.8441 113.805 30.6761 115.053 30.724C115.533 30.7721 116.013 30.8441 116.493 30.9401C116.973 30.9881 117.453 31.1081 117.933 31.3001ZM120.741 36.1241C120.789 35.5961 120.645 35.0441 120.309 34.4681C120.117 34.1801 119.853 33.916 119.517 33.6761C119.181 33.4361 118.821 33.4121 118.437 33.6041C117.957 33.8441 117.717 34.2521 117.717 34.8281C117.717 35.3561 117.861 35.8601 118.149 36.3401C118.725 37.1561 119.373 37.3961 120.093 37.06C120.237 36.9641 120.381 36.8441 120.525 36.7C120.669 36.5561 120.741 36.3641 120.741 36.1241ZM136.47 60.2441C133.11 59.3321 130.47 57.6041 128.55 55.0601C126.678 52.5161 125.862 49.3481 126.102 45.5561C126.294 43.0601 127.062 40.6841 128.406 38.428C129.798 36.172 131.55 34.2041 133.662 32.5241C135.822 30.8441 138.246 29.5241 140.934 28.5641C143.622 27.5561 146.334 27.052 149.07 27.052C150.606 27.1 152.214 27.316 153.894 27.7C155.622 28.0361 157.182 28.5881 158.574 29.3561C160.014 30.1241 161.166 31.1321 162.03 32.38C162.894 33.5801 163.254 35.0681 163.11 36.8441C163.014 38.0921 162.726 39.1961 162.246 40.1561C161.766 41.1161 161.118 41.9321 160.302 42.6041C159.486 43.2761 158.526 43.8041 157.422 44.1881C156.366 44.5241 155.238 44.6921 154.038 44.6921C153.222 44.6921 152.43 44.5241 151.662 44.1881C150.942 43.8521 150.246 43.2761 149.574 42.4601C149.382 42.3161 149.142 42.1961 148.854 42.1001C148.566 41.9561 148.302 41.8841 148.062 41.8841C147.294 41.8841 146.454 42.1001 145.542 42.5321C144.63 42.9161 143.838 43.2521 143.166 43.5401C142.878 43.6841 142.662 43.9481 142.518 44.3321C142.374 44.7161 142.182 45.0521 141.942 45.3401C142.23 45.4841 142.518 45.6761 142.806 45.9161C143.142 46.1561 143.454 46.3001 143.742 46.3481C145.278 46.5401 146.838 46.6601 148.422 46.7081C150.006 46.7561 151.566 46.9481 153.102 47.2841C157.902 48.3881 161.502 50.2361 163.902 52.8281C166.302 55.3721 167.382 58.5641 167.142 62.4041C166.998 64.5641 166.374 66.6521 165.27 68.6681C164.214 70.6361 162.798 72.3881 161.022 73.9241C159.246 75.4121 157.182 76.6121 154.83 77.5241C152.526 78.4361 150.054 78.8921 147.414 78.8921C146.55 78.8921 145.446 78.8201 144.102 78.6761C142.806 78.5321 141.414 78.2681 139.926 77.8841C138.486 77.5481 137.046 77.1161 135.606 76.5881C134.166 76.0121 132.87 75.3161 131.718 74.5001C130.614 73.6361 129.726 72.6281 129.054 71.4761C128.382 70.3241 128.094 69.0041 128.19 67.5161C128.238 66.7481 128.454 66.0041 128.838 65.2841C129.222 64.5641 129.726 63.9401 130.35 63.4121C130.974 62.8841 131.67 62.4521 132.438 62.1161C133.254 61.7801 134.118 61.6121 135.03 61.6121C136.038 61.6121 136.998 61.8281 137.91 62.2601C138.822 62.6441 139.71 63.0761 140.574 63.5561C141.438 63.9881 142.278 64.4201 143.094 64.8521C143.958 65.2361 144.822 65.4281 145.686 65.4281C146.358 65.4281 146.958 65.3321 147.486 65.1401C148.014 64.9001 148.59 64.5401 149.214 64.0601C148.974 63.8201 148.734 63.5561 148.494 63.2681C148.254 62.9801 147.99 62.8121 147.702 62.7641C145.782 62.2841 143.886 61.8761 142.014 61.5401C140.142 61.2041 138.294 60.7721 136.47 60.2441ZM161.238 35.1881C161.286 34.6601 161.142 34.1081 160.806 33.5321C160.614 33.2441 160.35 32.98 160.014 32.74C159.678 32.5 159.318 32.476 158.934 32.6681C158.454 32.9081 158.214 33.3161 158.214 33.8921C158.214 34.4201 158.358 34.924 158.646 35.404C159.222 36.2201 159.87 36.4601 160.59 36.1241C160.734 36.0281 160.878 35.9081 161.022 35.764C161.166 35.6201 161.238 35.4281 161.238 35.1881ZM191.163 78.1001C187.563 78.1001 184.395 77.3321 181.659 75.7961C178.923 74.2121 176.619 72.1481 174.747 69.6041C172.923 67.0121 171.531 64.0841 170.571 60.8201C169.659 57.5081 169.203 54.1481 169.203 50.7401C169.251 47.2841 169.755 43.9241 170.715 40.6601C171.675 37.3481 173.139 34.4201 175.107 31.8761C177.075 29.2841 179.547 27.2201 182.523 25.6841C185.499 24.1001 188.979 23.3081 192.963 23.3081C195.027 23.3081 197.259 23.6441 199.659 24.3161C202.059 24.9401 204.267 25.8761 206.283 27.124C208.347 28.3241 210.051 29.7881 211.395 31.5161C212.787 33.1961 213.483 35.0921 213.483 37.2041C213.483 38.3081 213.291 39.3641 212.907 40.372C212.571 41.3321 212.091 42.1961 211.467 42.9641C210.843 43.7321 210.099 44.3561 209.235 44.8361C208.419 45.2681 207.507 45.4841 206.499 45.4841C205.683 45.4841 204.819 45.4121 203.907 45.2681C203.043 45.0761 202.203 44.7881 201.387 44.4041C200.571 43.9721 199.803 43.4681 199.083 42.8921C198.363 42.2681 197.787 41.5241 197.355 40.6601C197.259 40.4201 196.971 40.2521 196.491 40.1561C196.011 40.0601 195.555 40.0121 195.123 40.0121C193.971 40.0121 192.843 40.2761 191.739 40.8041C190.635 41.2841 189.651 42.0041 188.787 42.9641C187.923 43.8761 187.227 44.9801 186.699 46.2761C186.171 47.5721 185.907 48.9881 185.907 50.5241C185.907 51.6281 186.051 52.7801 186.339 53.9801C186.675 55.1801 187.155 56.2841 187.779 57.2921C188.403 58.3001 189.147 59.1401 190.011 59.8121C190.875 60.4361 191.883 60.7481 193.035 60.7481C194.523 60.7481 195.819 60.2441 196.923 59.2361C198.027 58.2281 199.107 57.1241 200.163 55.9241L200.235 55.7081C200.859 55.0361 201.579 54.3161 202.395 53.5481C203.259 52.7801 204.315 52.3961 205.563 52.3961C206.619 52.3961 207.555 52.6121 208.371 53.0441C209.187 53.4761 209.883 54.0761 210.459 54.8441C211.035 55.6121 211.467 56.5001 211.755 57.5081C212.091 58.4681 212.259 59.5001 212.259 60.6041C212.259 63.0521 211.635 65.3561 210.387 67.5161C209.139 69.6281 207.507 71.4761 205.491 73.0601C203.523 74.5961 201.267 75.8201 198.723 76.7321C196.227 77.6441 193.707 78.1001 191.163 78.1001ZM211.107 35.4761C211.155 34.9481 211.011 34.3961 210.675 33.8201C210.483 33.5321 210.219 33.268 209.883 33.028C209.547 32.7881 209.187 32.7641 208.803 32.9561C208.323 33.1961 208.083 33.6041 208.083 34.1801C208.083 34.7081 208.227 35.2121 208.515 35.692C209.091 36.5081 209.739 36.7481 210.459 36.412C210.603 36.3161 210.747 36.1961 210.891 36.052C211.035 35.9081 211.107 35.7161 211.107 35.4761ZM256.589 31.3001C259.373 32.26 261.005 33.8921 261.485 36.1961C262.109 38.9321 262.589 41.8841 262.925 45.0521C263.309 48.2201 263.285 51.4841 262.853 54.8441C262.325 58.3961 261.293 61.7561 259.757 64.9241C258.221 68.0921 256.253 70.8761 253.853 73.2761C251.501 75.6281 248.741 77.4521 245.573 78.7481C242.405 80.0921 238.949 80.6681 235.205 80.4761C233.477 80.4281 231.773 80.1881 230.093 79.7561C228.461 79.3241 226.925 78.7481 225.485 78.0281C224.093 77.3561 222.821 76.5401 221.669 75.5801C220.517 74.5721 219.557 73.4921 218.789 72.3401C217.973 71.1401 217.301 69.8921 216.773 68.5961C216.293 67.2521 215.909 65.9081 215.621 64.5641C215.333 63.2201 215.165 61.8761 215.117 60.5321C215.021 59.1881 214.997 57.8921 215.045 56.6441C214.949 54.8201 214.949 52.9241 215.045 50.9561C215.141 48.9401 215.285 46.9481 215.477 44.9801V44.8361C215.525 44.6441 215.549 44.3561 215.549 43.9721C215.645 43.1561 215.813 42.2441 216.053 41.2361C216.293 40.2281 216.557 39.1961 216.845 38.1401C217.181 36.9881 217.709 35.932 218.429 34.9721C219.149 33.9641 219.989 33.1001 220.949 32.38C221.909 31.6601 222.965 31.1081 224.117 30.724C225.269 30.3401 226.445 30.1721 227.645 30.2201C230.045 30.364 231.893 31.2281 233.189 32.8121C234.485 34.3961 235.013 36.5081 234.773 39.1481C234.629 41.0681 234.461 42.9641 234.269 44.8361C234.077 46.6601 233.957 48.5081 233.909 50.3801C233.909 52.2041 233.981 54.0761 234.125 55.9961C234.317 57.8681 234.701 59.8121 235.277 61.8281V61.9721C235.517 62.5481 235.805 63.1241 236.141 63.7001C236.477 64.2761 237.029 64.5881 237.797 64.6361C238.709 64.6841 239.477 64.3961 240.101 63.7721C240.725 63.1481 241.253 62.3561 241.685 61.3961C242.117 60.3881 242.429 59.3321 242.621 58.2281C242.861 57.0761 243.053 56.0201 243.197 55.0601C243.485 53.0921 243.581 51.0521 243.485 48.9401C243.389 46.8281 243.221 44.8121 242.981 42.8921L242.909 41.5961C242.813 40.6361 242.837 39.8201 242.981 39.1481C243.173 37.8041 243.605 36.6041 244.277 35.5481C244.949 34.4921 245.765 33.6041 246.725 32.8841C247.733 32.1161 248.837 31.5641 250.037 31.2281C251.237 30.8441 252.461 30.6761 253.709 30.724C254.189 30.7721 254.669 30.8441 255.149 30.9401C255.629 30.9881 256.109 31.1081 256.589 31.3001ZM259.397 36.1241C259.445 35.5961 259.301 35.0441 258.965 34.4681C258.773 34.1801 258.509 33.916 258.173 33.6761C257.837 33.4361 257.477 33.4121 257.093 33.6041C256.613 33.8441 256.373 34.2521 256.373 34.8281C256.373 35.3561 256.517 35.8601 256.805 36.3401C257.381 37.1561 258.029 37.3961 258.749 37.06C258.893 36.9641 259.037 36.8441 259.181 36.7C259.325 36.5561 259.397 36.3641 259.397 36.1241ZM275.126 60.2441C271.766 59.3321 269.126 57.6041 267.206 55.0601C265.334 52.5161 264.518 49.3481 264.758 45.5561C264.95 43.0601 265.718 40.6841 267.062 38.428C268.454 36.172 270.206 34.2041 272.318 32.5241C274.478 30.8441 276.902 29.5241 279.59 28.5641C282.278 27.5561 284.99 27.052 287.726 27.052C289.262 27.1 290.87 27.316 292.55 27.7C294.278 28.0361 295.838 28.5881 297.23 29.3561C298.67 30.1241 299.822 31.1321 300.686 32.38C301.55 33.5801 301.91 35.0681 301.766 36.8441C301.67 38.0921 301.382 39.1961 300.902 40.1561C300.422 41.1161 299.774 41.9321 298.958 42.6041C298.142 43.2761 297.182 43.8041 296.078 44.1881C295.022 44.5241 293.894 44.6921 292.694 44.6921C291.878 44.6921 291.086 44.5241 290.318 44.1881C289.598 43.8521 288.902 43.2761 288.23 42.4601C288.038 42.3161 287.798 42.1961 287.51 42.1001C287.222 41.9561 286.958 41.8841 286.718 41.8841C285.95 41.8841 285.11 42.1001 284.198 42.5321C283.286 42.9161 282.494 43.2521 281.822 43.5401C281.534 43.6841 281.318 43.9481 281.174 44.3321C281.03 44.7161 280.838 45.0521 280.598 45.3401C280.886 45.4841 281.174 45.6761 281.462 45.9161C281.798 46.1561 282.11 46.3001 282.398 46.3481C283.934 46.5401 285.494 46.6601 287.078 46.7081C288.662 46.7561 290.222 46.9481 291.758 47.2841C296.558 48.3881 300.158 50.2361 302.558 52.8281C304.958 55.3721 306.038 58.5641 305.798 62.4041C305.654 64.5641 305.03 66.6521 303.926 68.6681C302.87 70.6361 301.454 72.3881 299.678 73.9241C297.902 75.4121 295.838 76.6121 293.486 77.5241C291.182 78.4361 288.71 78.8921 286.07 78.8921C285.206 78.8921 284.102 78.8201 282.758 78.6761C281.462 78.5321 280.07 78.2681 278.582 77.8841C277.142 77.5481 275.702 77.1161 274.262 76.5881C272.822 76.0121 271.526 75.3161 270.374 74.5001C269.27 73.6361 268.382 72.6281 267.71 71.4761C267.038 70.3241 266.75 69.0041 266.846 67.5161C266.894 66.7481 267.11 66.0041 267.494 65.2841C267.878 64.5641 268.382 63.9401 269.006 63.4121C269.63 62.8841 270.326 62.4521 271.094 62.1161C271.91 61.7801 272.774 61.6121 273.686 61.6121C274.694 61.6121 275.654 61.8281 276.566 62.2601C277.478 62.6441 278.366 63.0761 279.23 63.5561C280.094 63.9881 280.934 64.4201 281.75 64.8521C282.614 65.2361 283.478 65.4281 284.342 65.4281C285.014 65.4281 285.614 65.3321 286.142 65.1401C286.67 64.9001 287.246 64.5401 287.87 64.0601C287.63 63.8201 287.39 63.5561 287.15 63.2681C286.91 62.9801 286.646 62.8121 286.358 62.7641C284.438 62.2841 282.542 61.8761 280.67 61.5401C278.798 61.2041 276.95 60.7721 275.126 60.2441ZM299.894 35.1881C299.942 34.6601 299.798 34.1081 299.462 33.5321C299.27 33.2441 299.006 32.98 298.67 32.74C298.334 32.5 297.974 32.476 297.59 32.6681C297.11 32.9081 296.87 33.3161 296.87 33.8921C296.87 34.4201 297.014 34.924 297.302 35.404C297.878 36.2201 298.526 36.4601 299.246 36.1241C299.39 36.0281 299.534 35.9081 299.678 35.764C299.822 35.6201 299.894 35.4281 299.894 35.1881Z" fill="#4FCC0D"/>
</svg>
